<svg version="1.1" id="Layer_1" xmlns="http://www.w3.org/2000/svg" xmlns:xlink="http://www.w3.org/1999/xlink" x="0px" y="0px"
	 viewBox="0 0 380 380" enable-background="new 0 0 380 380" xml:space="preserve">
<circle id="Round_background" fill="#FFFFFF" cx="191" cy="190.8" r="179.3"/>
<g>
	<g>
		<path fill="#DA2590" d="M73.9,311.7l-14.1-8.1l157.1-272l14.1,8.1L73.9,311.7z"/>
		<path fill="#BC4F59" d="M36.5,242.9h309.3v16H36.5V242.9z"/>
		<path fill="#BC4F59" d="M205.4,319.4l-126.4-73l6.5-11.3l126.4,73L205.4,319.4z M296.9,160.9l-126.4-73l6.5-11.3l126.4,73
			L296.9,160.9z"/>
		<path fill="#BC4F59" d="M85.5,160.9L79,149.5l126.4-73l6.5,11.3L85.5,160.9z"/>
		<path fill="#DA2590" d="M308.6,312.4L150.7,38.9l14.2-8.2l157.9,273.6L308.6,312.4z M93.9,125.3h13v144.9h-13V125.3z M275.6,125.3
			h13v144.9h-13V125.3z"/>
		<path fill="#BC4F59" d="M178.5,318.4l-6.4-11.1L295.4,236l6.4,11.1L178.5,318.4z"/>
	</g>
	<path fill="#333333" d="M302.7,262.4c-6.3,11-20.4,14.7-31.4,8.4c-11-6.3-14.7-20.4-8.4-31.4c6.3-11,20.4-14.7,31.4-8.4
		C305.3,237.4,309,251.4,302.7,262.4 M119.4,156.6c-6.3,11-20.4,14.7-31.4,8.4s-14.7-20.4-8.4-31.4c6.3-11,20.4-14.7,31.4-8.4
		C122,131.6,125.8,145.6,119.4,156.6 M79.7,262.4c-6.3-11-2.6-25,8.4-31.4c11-6.3,25-2.6,31.4,8.4c6.3,11,2.6,25-8.4,31.4
		C100,277.1,86,273.3,79.7,262.4 M262.9,156.6c-6.3-11-2.6-25,8.4-31.4c11-6.3,25-2.6,31.4,8.4c6.3,11,2.6,25-8.4,31.4
		C283.3,171.3,269.2,167.5,262.9,156.6 M191.2,326.7c-12.7,0-23-10.3-23-23s10.3-23,23-23c12.7,0,23,10.3,23,23
		C214.1,316.4,203.9,326.7,191.2,326.7 M191.2,115.1c-12.7,0-23-10.3-23-23s10.3-23,23-23c12.7,0,23,10.3,23,23
		S203.9,115.1,191.2,115.1"/>
</g>
</svg>
