<svg version="1.1" xmlns="http://www.w3.org/2000/svg" xmlns:xlink="http://www.w3.org/1999/xlink" x="0px" y="0px"
	 viewBox="0 0 310 310" enable-background="new 0 0 310 310" xml:space="preserve">
<g id="Round_background_copy">
	<circle display="inline" fill="#FFFFFF" cx="154.5" cy="155.2" r="149.3"/>
</g>
<g id="Layer_1">
	<g>
		<path fill="#DA2590" d="M60.8,222.7l-9.5-5.5L156.6,34.8l9.5,5.5L60.8,222.7z"/>
		<path fill="#BC4F59" d="M49.2,202.7h210.6v10.9H49.2V202.7z"/>
		<path fill="#BC4F59" d="M158.7,269.6L53.3,208.8l5.5-9.5l105.4,60.8L158.7,269.6z M250.2,111.1L144.9,50.3l5.5-9.5l105.4,60.8
			L250.2,111.1z"/>
		<path fill="#BC4F59" d="M58.8,111l-5.5-9.5l105.4-60.8l5.5,9.5L58.8,111z"/>
		<path fill="#DA2590" d="M248.3,222.7L143,40.3l9.5-5.5l105.3,182.4L248.3,222.7z M57.5,94.4h10.9V216H57.5V94.4z M240.6,94.4h10.9
			V216h-10.9V94.4z"/>
		<path fill="#BC4F59" d="M156.8,265l-4.8-8.3l91.6-52.9l4.8,8.3L156.8,265z"/>
		<path fill="#333333" d="M266,219.6c-6.3,11-20.4,14.7-31.4,8.4c-11-6.3-14.7-20.4-8.4-31.4c6.3-11,20.4-14.7,31.4-8.4
			C268.6,194.6,272.4,208.6,266,219.6 M82.8,113.8c-6.3,11-20.4,14.7-31.4,8.4c-11-6.3-14.7-20.4-8.4-31.4s20.4-14.7,31.4-8.4
			C85.3,88.8,89.1,102.8,82.8,113.8 M43.1,219.6c-6.3-11-2.6-25,8.4-31.4c11-6.3,25-2.6,31.4,8.4c6.3,11,2.6,25-8.4,31.4
			C63.4,234.3,49.4,230.5,43.1,219.6 M226.3,113.8c-6.3-11-2.6-25,8.4-31.4c11-6.3,25-2.6,31.4,8.4c6.3,11,2.6,25-8.4,31.4
			C246.6,128.5,232.6,124.7,226.3,113.8 M154.5,283.9c-12.7,0-23-10.3-23-23s10.3-23,23-23c12.7,0,23,10.3,23,23
			C177.5,273.6,167.2,283.9,154.5,283.9 M154.5,72.3c-12.7,0-23-10.3-23-23s10.3-23,23-23c12.7,0,23,10.3,23,23
			S167.2,72.3,154.5,72.3"/>
	</g>
</g>
</svg>
